<svg xmlns="http://www.w3.org/2000/svg" viewBox="-6 -79.0 485.7 115.0" role="img" aria-label="DeckCorp"><defs><linearGradient id="dcg" x1="0" y1="0" x2="1" y2="1"><stop offset="0" stop-color="#2FBF71"/><stop offset="1" stop-color="#8FF0C0"/></linearGradient><clipPath id="dclip"><path d="M17 10H31A22 22 0 0 1 31 54H17A7 7 0 0 1 10 47V17A7 7 0 0 1 17 10Z"/></clipPath></defs><g transform="translate(0 -73.0) scale(1.6590909090909092) translate(-10 -10)"><g clip-path="url(#dclip)"><rect y="10" width="64" height="11" fill="url(#dcg)"/><rect y="26.5" width="64" height="11" fill="url(#dcg)" opacity=".38"/><rect y="43" width="64" height="11" fill="#0B0F14"/></g></g><path d="M109.69090909090909 1.9500000000000002Q102.69090909090909 1.9500000000000002 97.3659090909091 -0.44999999999999996Q92.0409090909091 -2.85 88.4659090909091 -6.9125000000000005Q84.89090909090909 -10.975000000000001 83.04090909090908 -16.025000000000002Q81.19090909090909 -21.075000000000003 81.19090909090909 -26.400000000000002V-28.35Q81.19090909090909 -33.85 83.04090909090908 -38.9375Q84.89090909090909 -44.025000000000006 88.4284090909091 -48.0125Q91.9659090909091 -52.0 97.1784090909091 -54.35Q102.39090909090909 -56.7 109.0909090909091 -56.7Q117.94090909090909 -56.7 124.00340909090909 -52.7625Q130.0659090909091 -48.825 133.2284090909091 -42.4375Q136.3909090909091 -36.050000000000004 136.3909090909091 -28.6V-23.175H87.94090909090909V-32.325H126.7659090909091L121.4909090909091 -28.05Q121.4909090909091 -33.0 120.1034090909091 -36.475Q118.7159090909091 -39.95 115.9784090909091 -41.800000000000004Q113.2409090909091 -43.650000000000006 109.0909090909091 -43.650000000000006Q104.9659090909091 -43.650000000000006 102.0409090909091 -41.7625Q99.1159090909091 -39.875 97.6034090909091 -36.2375Q96.0909090909091 -32.6 96.0909090909091 -27.3Q96.0909090909091 -22.425 97.5284090909091 -18.775Q98.9659090909091 -15.125 101.9659090909091 -13.1125Q104.9659090909091 -11.100000000000001 109.69090909090909 -11.100000000000001Q114.1159090909091 -11.100000000000001 116.9409090909091 -12.775000000000002Q119.7659090909091 -14.450000000000001 120.7159090909091 -17.025000000000002H135.4159090909091Q134.2409090909091 -11.450000000000001 130.7534090909091 -7.15Q127.2659090909091 -2.85 121.9284090909091 -0.44999999999999996Q116.5909090909091 1.9500000000000002 109.69090909090909 1.9500000000000002ZM167.1159090909091 1.9500000000000002Q159.9909090909091 1.9500000000000002 154.7534090909091 -0.4125000000000001Q149.5159090909091 -2.7750000000000004 146.02840909090912 -6.7875000000000005Q142.5409090909091 -10.8 140.8159090909091 -15.850000000000001Q139.0909090909091 -20.900000000000002 139.0909090909091 -26.25V-28.200000000000003Q139.0909090909091 -33.825 140.89090909090908 -38.95Q142.6909090909091 -44.075 146.2284090909091 -48.0625Q149.7659090909091 -52.050000000000004 154.9909090909091 -54.375Q160.2159090909091 -56.7 167.0659090909091 -56.7Q174.4409090909091 -56.7 180.1284090909091 -53.825Q185.8159090909091 -50.95 189.2159090909091 -45.875Q192.6159090909091 -40.800000000000004 193.0159090909091 -34.15H177.3659090909091Q176.9659090909091 -37.875 174.3784090909091 -40.4375Q171.7909090909091 -43.0 167.0659090909091 -43.0Q163.0159090909091 -43.0 160.3784090909091 -41.0Q157.7409090909091 -39.0 156.4409090909091 -35.475Q155.1409090909091 -31.950000000000003 155.1409090909091 -27.225Q155.1409090909091 -22.775000000000002 156.3284090909091 -19.2375Q157.5159090909091 -15.700000000000001 160.1659090909091 -13.725000000000001Q162.8159090909091 -11.75 167.1159090909091 -11.75Q170.3409090909091 -11.75 172.5909090909091 -12.9Q174.8409090909091 -14.05 176.1659090909091 -16.1125Q177.4909090909091 -18.175 177.8159090909091 -20.900000000000002H193.4659090909091Q193.0909090909091 -14.075000000000001 189.5909090909091 -8.950000000000001Q186.0909090909091 -3.825 180.3034090909091 -0.9375Q174.5159090909091 1.9500000000000002 167.1159090909091 1.9500000000000002ZM237.6909090909091 0.0 220.4409090909091 -25.575000000000003H212.6909090909091L235.0159090909091 -54.75H251.7909090909091L230.8659090909091 -27.55L231.0409090909091 -35.425000000000004L255.6909090909091 0.0ZM199.0909090909091 0.0V-73.0H215.1409090909091V0.0Z" fill="#0B0F14"/><path d="M283.1909090909091 1.9000000000000001Q276.1409090909091 1.9000000000000001 270.9659090909091 -0.475Q265.7909090909091 -2.85 262.3659090909091 -6.875Q258.9409090909091 -10.9 257.2409090909091 -15.900000000000002Q255.5409090909091 -20.900000000000002 255.5409090909091 -26.1V-28.0Q255.5409090909091 -33.45 257.2909090909091 -38.5Q259.0409090909091 -43.550000000000004 262.5159090909091 -47.525000000000006Q265.9909090909091 -51.5 271.1409090909091 -53.85Q276.2909090909091 -56.2 283.0909090909091 -56.2Q290.2409090909091 -56.2 295.8159090909091 -53.45Q301.3909090909091 -50.7 304.7409090909091 -45.800000000000004Q308.0909090909091 -40.900000000000006 308.4909090909091 -34.4H294.9909090909091Q294.4909090909091 -38.550000000000004 291.4659090909091 -41.375Q288.4409090909091 -44.2 283.0909090909091 -44.2Q278.4909090909091 -44.2 275.4659090909091 -42.0Q272.4409090909091 -39.800000000000004 270.9409090909091 -35.95Q269.4409090909091 -32.1 269.4409090909091 -27.05Q269.4409090909091 -22.25 270.8659090909091 -18.375Q272.2909090909091 -14.5 275.3409090909091 -12.3Q278.3909090909091 -10.100000000000001 283.1909090909091 -10.100000000000001Q286.8409090909091 -10.100000000000001 289.44090909090914 -11.400000000000002Q292.0409090909091 -12.700000000000001 293.5909090909091 -14.975000000000001Q295.1409090909091 -17.25 295.4909090909091 -20.200000000000003H308.9909090909091Q308.6409090909091 -13.55 305.1909090909091 -8.600000000000001Q301.7409090909091 -3.6500000000000004 296.0659090909091 -0.8750000000000001Q290.3909090909091 1.9000000000000001 283.1909090909091 1.9000000000000001ZM341.6909090909091 1.9000000000000001Q334.5409090909091 1.9000000000000001 329.0409090909091 -0.4Q323.5409090909091 -2.7 319.7409090909091 -6.625Q315.9409090909091 -10.55 313.9909090909091 -15.55Q312.0409090909091 -20.55 312.0409090909091 -26.0V-28.1Q312.0409090909091 -33.65 314.06590909090914 -38.725Q316.0909090909091 -43.800000000000004 319.94090909090914 -47.72500000000001Q323.7909090909091 -51.650000000000006 329.2909090909091 -53.925000000000004Q334.7909090909091 -56.2 341.6909090909091 -56.2Q348.6409090909091 -56.2 354.1159090909091 -53.925000000000004Q359.5909090909091 -51.650000000000006 363.44090909090914 -47.72500000000001Q367.2909090909091 -43.800000000000004 369.31590909090914 -38.725Q371.3409090909091 -33.65 371.3409090909091 -28.1V-26.0Q371.3409090909091 -20.55 369.3909090909091 -15.55Q367.4409090909091 -10.55 363.6409090909091 -6.625Q359.8409090909091 -2.7 354.3409090909091 -0.4Q348.8409090909091 1.9000000000000001 341.6909090909091 1.9000000000000001ZM341.6909090909091 -10.0Q346.7909090909091 -10.0 350.2909090909091 -12.225000000000001Q353.7909090909091 -14.450000000000001 355.6159090909091 -18.325000000000003Q357.4409090909091 -22.200000000000003 357.4409090909091 -27.05Q357.4409090909091 -32.050000000000004 355.5659090909091 -35.925000000000004Q353.6909090909091 -39.800000000000004 350.16590909090905 -42.050000000000004Q346.6409090909091 -44.300000000000004 341.6909090909091 -44.300000000000004Q336.7909090909091 -44.300000000000004 333.2409090909091 -42.050000000000004Q329.6909090909091 -39.800000000000004 327.8159090909091 -35.925000000000004Q325.9409090909091 -32.050000000000004 325.9409090909091 -27.05Q325.9409090909091 -22.200000000000003 327.7659090909091 -18.325000000000003Q329.5909090909091 -14.450000000000001 333.1159090909091 -12.225000000000001Q336.6409090909091 -10.0 341.6909090909091 -10.0ZM379.04090909090905 0.0V-54.300000000000004H390.04090909090905V-31.3H389.7409090909091Q389.7409090909091 -42.95 394.7409090909091 -48.975Q399.7409090909091 -55.0 409.4409090909091 -55.0H411.4409090909091V-42.900000000000006H407.6409090909091Q400.59090909090907 -42.900000000000006 396.7659090909091 -39.125Q392.9409090909091 -35.35 392.9409090909091 -28.25V0.0ZM416.24090909090904 20.0V-54.300000000000004H427.24090909090904V-30.85L425.54090909090905 -30.950000000000003Q425.9409090909091 -39.300000000000004 428.9909090909091 -44.875Q432.04090909090905 -50.45 437.1409090909091 -53.225Q442.24090909090904 -56.0 448.54090909090905 -56.0Q454.29090909090905 -56.0 458.96590909090907 -53.875Q463.6409090909091 -51.75 466.9909090909091 -47.975Q470.34090909090907 -44.2 472.1159090909091 -39.150000000000006Q473.8909090909091 -34.1 473.8909090909091 -28.25V-26.150000000000002Q473.8909090909091 -20.3 472.1409090909091 -15.225000000000001Q470.3909090909091 -10.15 467.0659090909091 -6.325Q463.7409090909091 -2.5 459.04090909090905 -0.35Q454.34090909090907 1.8 448.4909090909091 1.8Q442.4409090909091 1.8 437.3909090909091 -0.725Q432.34090909090907 -3.25 429.21590909090907 -8.625Q426.09090909090907 -14.0 425.74090909090904 -22.450000000000003L430.1409090909091 -15.75V20.0ZM444.99090909090904 -9.9Q449.4909090909091 -9.9 452.8659090909091 -12.100000000000001Q456.2409090909091 -14.3 458.1159090909091 -18.225Q459.9909090909091 -22.150000000000002 459.9909090909091 -27.200000000000003Q459.9909090909091 -32.35 458.1159090909091 -36.175Q456.2409090909091 -40.0 452.8909090909091 -42.150000000000006Q449.54090909090905 -44.300000000000004 444.99090909090904 -44.300000000000004Q440.9409090909091 -44.300000000000004 437.46590909090907 -42.47500000000001Q433.99090909090904 -40.650000000000006 431.86590909090904 -37.175000000000004Q429.74090909090904 -33.7 429.74090909090904 -28.8V-24.8Q429.74090909090904 -20.1 431.94090909090903 -16.775000000000002Q434.1409090909091 -13.450000000000001 437.6409090909091 -11.675Q441.1409090909091 -9.9 444.99090909090904 -9.9Z" fill="#0B0F14" fill-opacity=".55"/></svg>
